{
  "accessors": [
    {
      "bufferView": 1,
      "componentType": 5126,
      "count": 52661,
      "max": [
        0.64933043718338013,
        0.88360857963562012,
        1.2856142520904541
      ],
      "min": [
        -0.64929389953613281,
        -0.91811376810073853,
        -0.73861777782440186
      ],
      "type": "VEC3"
    },
    {
      "bufferView": 1,
      "byteOffset": 631932,
      "componentType": 5126,
      "count": 52661,
      "max": [
        0.99998587369918823,
        0.99999189376831055,
        0.99999600648880005
      ],
      "min": [
        -0.99994385242462158,
        -0.99992966651916504,
        -0.99989551305770874
      ],
      "type": "VEC3"
    },
    {
      "bufferView": 0,
      "componentType": 5125,
      "count": 313230,
      "max": [
        52660
      ],
      "min": [
        0
      ],
      "type": "SCALAR"
    }
  ],
  "asset": {
    "extras": {
      "author": "VAA (https://sketchfab.com/Epidural)",
      "license": "CC-BY-4.0 (http://creativecommons.org/licenses/by/4.0/)",
      "source": "https://sketchfab.com/3d-models/basic-head-structure-f4a7ae95d10c490a9a2428e6243ac06a",
      "title": "Basic Head Structure"
    },
    "generator": "Sketchfab-8.62.0",
    "version": "2.0"
  },
  "bufferViews": [
    {
      "buffer": 0,
      "byteLength": 1252920,
      "byteOffset": 0,
      "name": "floatBufferViews",
      "target": 34963
    },
    {
      "buffer": 0,
      "byteLength": 1263864,
      "byteOffset": 1252920,
      "byteStride": 12,
      "name": "floatBufferViews",
      "target": 34962
    }
  ],
  "buffers": [
    {
      "byteLength": 2516784,
      "uri": "scene.bin"
    }
  ],
  "materials": [
    {
      "doubleSided": true,
      "name": "material_0",
      "pbrMetallicRoughness": {
        "baseColorFactor": [
          0.32395922635876673,
          0.32395922635876673,
          0.32395922635876673,
          1
        ],
        "metallicFactor": 0,
        "roughnessFactor": 0.59999999999999998
      }
    }
  ],
  "meshes": [
    {
      "primitives": [
        {
          "attributes": {
            "NORMAL": 1,
            "POSITION": 0
          },
          "indices": 2,
          "material": 0,
          "mode": 4
        }
      ]
    }
  ],
  "nodes": [
    {
      "children": [
        1
      ],
      "name": "RootNode (gltf orientation matrix)",
      "rotation": [
        -0.70710678118654746,
        -0,
        -0,
        0.70710678118654757
      ]
    },
    {
      "children": [
        2
      ],
      "name": "RootNode (model correction matrix)"
    },
    {
      "children": [
        3
      ],
      "name": "Base_Planes.OBJ.cleaner.materialmerger.gles"
    },
    {
      "mesh": 0,
      "name": ""
    }
  ],
  "scene": 0,
  "scenes": [
    {
      "name": "OSG_Scene",
      "nodes": [
        0
      ]
    }
  ]
}

