{
  "accessors": [
    {
      "bufferView": 2,
      "componentType": 5126,
      "count": 1736,
      "max": [
        1.6136897802352905,
        1.8303381204605103,
        2.4708352088928223
      ],
      "min": [
        -3.1229615211486816,
        -1.8765965700149536,
        -0.041026830673217773
      ],
      "type": "VEC3"
    },
    {
      "bufferView": 2,
      "byteOffset": 20832,
      "componentType": 5126,
      "count": 1736,
      "max": [
        1,
        1,
        1
      ],
      "min": [
        -1,
        -1,
        -1
      ],
      "type": "VEC3"
    },
    {
      "bufferView": 3,
      "componentType": 5126,
      "count": 1736,
      "max": [
        1,
        1,
        1,
        1
      ],
      "min": [
        -1,
        -1,
        -1,
        -1
      ],
      "type": "VEC4"
    },
    {
      "bufferView": 1,
      "componentType": 5126,
      "count": 1736,
      "max": [
        0.99666815996170044,
        0.9756782054901123
      ],
      "min": [
        0.00039057774120010436,
        0.0003905777120962739
      ],
      "type": "VEC2"
    },
    {
      "bufferView": 0,
      "componentType": 5125,
      "count": 5688,
      "max": [
        1735
      ],
      "min": [
        0
      ],
      "type": "SCALAR"
    },
    {
      "bufferView": 2,
      "byteOffset": 41664,
      "componentType": 5126,
      "count": 82,
      "max": [
        1.3217214345932007,
        -1.0618016719818115,
        1.2874830961227417
      ],
      "min": [
        -3.1139001846313477,
        -1.8765965700149536,
        0.035523746162652969
      ],
      "type": "VEC3"
    },
    {
      "bufferView": 2,
      "byteOffset": 42648,
      "componentType": 5126,
      "count": 82,
      "max": [
        0.99549877643585205,
        0.97472769021987915,
        1
      ],
      "min": [
        -0.99549877643585205,
        -0.99050825834274292,
        -0.4063890278339386
      ],
      "type": "VEC3"
    },
    {
      "bufferView": 1,
      "byteOffset": 13888,
      "componentType": 5126,
      "count": 82,
      "max": [
        0.91320967674255371,
        0.96494382619857788
      ],
      "min": [
        0.025631899014115334,
        0.19613911211490631
      ],
      "type": "VEC2"
    },
    {
      "bufferView": 0,
      "byteOffset": 22752,
      "componentType": 5125,
      "count": 174,
      "max": [
        81
      ],
      "min": [
        0
      ],
      "type": "SCALAR"
    },
    {
      "bufferView": 2,
      "byteOffset": 43632,
      "componentType": 5126,
      "count": 29,
      "max": [
        1.542345404624939,
        -0.26684790849685669,
        2.3994908332824707
      ],
      "min": [
        -1.542345404624939,
        -0.26684793829917908,
        0.70263576507568359
      ],
      "type": "VEC3"
    },
    {
      "bufferView": 2,
      "byteOffset": 43980,
      "componentType": 5126,
      "count": 29,
      "max": [
        1.9322738964433483e-08,
        -1,
        6.515750072821902e-08
      ],
      "min": [
        -1.9322735411719805e-08,
        -1,
        -4.1281872142917564e-08
      ],
      "type": "VEC3"
    },
    {
      "bufferView": 1,
      "byteOffset": 14544,
      "componentType": 5126,
      "count": 29,
      "max": [
        1,
        1
      ],
      "min": [
        0,
        0
      ],
      "type": "VEC2"
    },
    {
      "bufferView": 0,
      "byteOffset": 23448,
      "componentType": 5125,
      "count": 84,
      "max": [
        28
      ],
      "min": [
        0
      ],
      "type": "SCALAR"
    },
    {
      "bufferView": 2,
      "byteOffset": 44328,
      "componentType": 5126,
      "count": 2369,
      "max": [
        1.6067179441452026,
        1.5592892169952393,
        1.3718602657318115
      ],
      "min": [
        -3.0563733577728271,
        -2.0734946727752686,
        -0.040532313287258148
      ],
      "type": "VEC3"
    },
    {
      "bufferView": 2,
      "byteOffset": 72756,
      "componentType": 5126,
      "count": 2369,
      "max": [
        0.99549877643585205,
        0.99958533048629761,
        1
      ],
      "min": [
        -0.99799609184265137,
        -0.99958533048629761,
        -1
      ],
      "type": "VEC3"
    },
    {
      "bufferView": 3,
      "byteOffset": 27776,
      "componentType": 5126,
      "count": 2369,
      "max": [
        1,
        0.99653130769729614,
        0.99573647975921631,
        1
      ],
      "min": [
        -1,
        -0.99998337030410767,
        -0.99573343992233276,
        -1
      ],
      "type": "VEC4"
    },
    {
      "bufferView": 1,
      "byteOffset": 14776,
      "componentType": 5126,
      "count": 2369,
      "max": [
        1.0706998109817505,
        0.96494382619857788
      ],
      "min": [
        0.018176715821027756,
        0.0076891202479600906
      ],
      "type": "VEC2"
    },
    {
      "bufferView": 0,
      "byteOffset": 23784,
      "componentType": 5125,
      "count": 3924,
      "max": [
        2368
      ],
      "min": [
        0
      ],
      "type": "SCALAR"
    }
  ],
  "asset": {
    "extras": {
      "author": "Bydlo Skeleton (https://sketchfab.com/Starven38)",
      "license": "CC-BY-SA-4.0 (http://creativecommons.org/licenses/by-sa/4.0/)",
      "source": "https://sketchfab.com/3d-models/personal-computer-aa398650fe6e4baa8771c71266d842f4",
      "title": "Personal Computer"
    },
    "generator": "Sketchfab-9.33.0",
    "version": "2.0"
  },
  "bufferViews": [
    {
      "buffer": 0,
      "byteLength": 39480,
      "byteOffset": 0,
      "name": "floatBufferViews",
      "target": 34963
    },
    {
      "buffer": 0,
      "byteLength": 33728,
      "byteOffset": 39480,
      "byteStride": 8,
      "name": "floatBufferViews",
      "target": 34962
    },
    {
      "buffer": 0,
      "byteLength": 101184,
      "byteOffset": 73208,
      "byteStride": 12,
      "name": "floatBufferViews",
      "target": 34962
    },
    {
      "buffer": 0,
      "byteLength": 65680,
      "byteOffset": 174392,
      "byteStride": 16,
      "name": "floatBufferViews",
      "target": 34962
    }
  ],
  "buffers": [
    {
      "byteLength": 240072,
      "uri": "scene.bin"
    }
  ],
  "images": [
    {
      "uri": "textures/material_baseColor.png"
    },
    {
      "uri": "textures/material_metallicRoughness.png"
    },
    {
      "uri": "textures/material_normal.png"
    },
    {
      "uri": "textures/Screen_baseColor.png"
    },
    {
      "uri": "textures/Keyboard_baseColor.png"
    },
    {
      "uri": "textures/Keyboard_metallicRoughness.png"
    },
    {
      "uri": "textures/Keyboard_normal.png"
    }
  ],
  "materials": [
    {
      "doubleSided": true,
      "name": "material",
      "normalTexture": {
        "index": 2,
        "scale": 1,
        "texCoord": 0
      },
      "pbrMetallicRoughness": {
        "baseColorFactor": [
          1,
          1,
          1,
          1
        ],
        "baseColorTexture": {
          "index": 0,
          "texCoord": 0
        },
        "metallicFactor": 1,
        "metallicRoughnessTexture": {
          "index": 1,
          "texCoord": 0
        },
        "roughnessFactor": 0.4916770222658482
      }
    },
    {
      "doubleSided": true,
      "emissiveFactor": [
        0.93509910767253246,
        1,
        0.3500096530828225
      ],
      "name": "LightMat",
      "pbrMetallicRoughness": {
        "baseColorFactor": [
          0.1028690976,
          1,
          0,
          1
        ],
        "metallicFactor": 0,
        "roughnessFactor": 0.80404082060000004
      }
    },
    {
      "doubleSided": true,
      "emissiveFactor": [
        0.50351434008840579,
        0.50351434008840579,
        0.50351434008840579
      ],
      "emissiveTexture": {
        "index": 3,
        "texCoord": 0
      },
      "name": "Screen",
      "pbrMetallicRoughness": {
        "baseColorFactor": [
          1,
          1,
          1,
          1
        ],
        "baseColorTexture": {
          "index": 3,
          "texCoord": 0
        },
        "metallicFactor": 0.80571383994235257,
        "roughnessFactor": 0
      }
    },
    {
      "doubleSided": true,
      "emissiveFactor": [
        0,
        0,
        0
      ],
      "name": "Keyboard",
      "normalTexture": {
        "index": 6,
        "scale": 1,
        "texCoord": 0
      },
      "pbrMetallicRoughness": {
        "baseColorFactor": [
          1,
          1,
          1,
          1
        ],
        "baseColorTexture": {
          "index": 4,
          "texCoord": 0
        },
        "metallicFactor": 1,
        "metallicRoughnessTexture": {
          "index": 5,
          "texCoord": 0
        },
        "roughnessFactor": 1
      }
    }
  ],
  "meshes": [
    {
      "name": "Cube_PC_0",
      "primitives": [
        {
          "attributes": {
            "NORMAL": 1,
            "POSITION": 0,
            "TANGENT": 2,
            "TEXCOORD_0": 3
          },
          "indices": 4,
          "material": 0,
          "mode": 4
        }
      ]
    },
    {
      "name": "Cube_LightMat_0",
      "primitives": [
        {
          "attributes": {
            "NORMAL": 6,
            "POSITION": 5,
            "TEXCOORD_0": 7
          },
          "indices": 8,
          "material": 1,
          "mode": 4
        }
      ]
    },
    {
      "name": "Cube_Screen_0",
      "primitives": [
        {
          "attributes": {
            "NORMAL": 10,
            "POSITION": 9,
            "TEXCOORD_0": 11
          },
          "indices": 12,
          "material": 2,
          "mode": 4
        }
      ]
    },
    {
      "name": "Cube_Keyboard_0",
      "primitives": [
        {
          "attributes": {
            "NORMAL": 14,
            "POSITION": 13,
            "TANGENT": 15,
            "TEXCOORD_0": 16
          },
          "indices": 17,
          "material": 3,
          "mode": 4
        }
      ]
    }
  ],
  "nodes": [
    {
      "children": [
        1
      ],
      "name": "RootNode (gltf orientation matrix)",
      "rotation": [
        -0.70710678118654746,
        -0,
        -0,
        0.70710678118654757
      ]
    },
    {
      "children": [
        2
      ],
      "matrix": [
        0.002877258462831378,
        0,
        0,
        0,
        0,
        0.002877258462831378,
        0,
        0,
        0,
        0,
        0.002877258462831378,
        0,
        0,
        0,
        0,
        1
      ],
      "name": "RootNode (model correction matrix)"
    },
    {
      "children": [
        3
      ],
      "matrix": [
        1,
        0,
        0,
        0,
        0,
        0,
        1,
        0,
        0,
        -1,
        0,
        0,
        0,
        0,
        0,
        1
      ],
      "name": "eda352ebf8e8448da670d2ad9af8449d.fbx"
    },
    {
      "children": [
        4
      ],
      "name": "RootNode"
    },
    {
      "children": [
        5,
        6,
        7,
        8
      ],
      "matrix": [
        100,
        0,
        0,
        0,
        0,
        -1.6292067939183141e-05,
        -99.999999999998678,
        0,
        0,
        99.999999999998678,
        -1.6292067939183141e-05,
        0,
        0,
        0,
        0,
        1
      ],
      "name": "Cube"
    },
    {
      "mesh": 0,
      "name": "Cube_PC_0"
    },
    {
      "mesh": 1,
      "name": "Cube_LightMat_0"
    },
    {
      "mesh": 2,
      "name": "Cube_Screen_0"
    },
    {
      "mesh": 3,
      "name": "Cube_Keyboard_0"
    }
  ],
  "samplers": [
    {
      "magFilter": 9729,
      "minFilter": 9987,
      "wrapS": 10497,
      "wrapT": 10497
    },
    {
      "magFilter": 9728,
      "minFilter": 9728,
      "wrapS": 10497,
      "wrapT": 10497
    }
  ],
  "scene": 0,
  "scenes": [
    {
      "name": "OSG_Scene",
      "nodes": [
        0
      ]
    }
  ],
  "textures": [
    {
      "sampler": 0,
      "source": 0
    },
    {
      "sampler": 0,
      "source": 1
    },
    {
      "sampler": 0,
      "source": 2
    },
    {
      "sampler": 0,
      "source": 3
    },
    {
      "sampler": 1,
      "source": 4
    },
    {
      "sampler": 0,
      "source": 5
    },
    {
      "sampler": 0,
      "source": 6
    }
  ]
}

